<svg id="Capa_1" enable-background="new 0 0 496.032 496.032" height="512" viewBox="0 0 496.032 496.032" width="512" xmlns="http://www.w3.org/2000/svg"><g><path d="m220.341 337.887c21.743-9.666 75.071-60.388 75.071-60.388l-10.635-26.969-186.501 102.177s3.419 92.301 4.558 92.681c1.14.38 20.435-25.46 20.435-25.46l10.464-15.062c21.315-30.683 51.551-54.067 86.608-66.979z" fill="#65daf9"/><g id="XMLID_465_"><g><path d="m378.977 225.539c.404 4.217 3.97 7.423 8.206 7.423h18.408c8.99 0 17.12 3.64 23 9.53 6.057 6.047 9.735 14.474 9.521 23.758-.41 17.773-15.398 31.762-33.175 31.762h-111.656v5.38c0 3.9-.48 7.77-1.4 11.53-.93 3.75-2.32 7.4-4.13 10.85-6.69 12.72-18.72 21.78-32.79 24.69l-32.73 6.78c-1.93.4-3.62-1.37-3.13-3.28l12.97-50.82-1.29-.33-8.96 2.31c-45.95 11.82-82 47.43-94.39 93.24l-6.89 25.49 3.62 2.51c19.21 13.37 30.67 35.3 30.67 58.72v7.451c0 1.932-1.566 3.499-3.499 3.499h-6.101c-17.55 0-34.31-7.32-46.23-20.2l-3.828-4.133c-1.388-1.498-3.757-1.498-5.144 0l-3.828 4.133c-11.929 12.879-28.688 20.2-46.242 20.2h-6.099c-1.932 0-3.499-1.566-3.499-3.499v-9.691c0-22.16 10.27-43.07 27.81-56.61l8.02-6.19-2.34-43.17c-2.99-55.35 16.8-109.08 54.05-149.08.53-.58.91-1.28 1.1-2.04.32-1.35.01-2.77-.84-3.87l-3.17-4.09c-9.49-12.25-22.53-21.28-37.34-25.86l-8.64-2.67c-1.78-.55-2.82-2.16-2.82-3.83 0-.89.29-1.8.93-2.56 14.14-17 35.1-26.82 57.21-26.82h15.4c19.74 0 38.67 7.84 52.63 21.8 17.71-13.98 39.7-21.7 62.5-21.7h47.66c39.916 0 72.722 30.45 76.456 69.387z" fill="#c8effd"/></g><g><path d="m55.386 492.379c-1.932 0-3.499-1.566-3.499-3.499v-9.691c0-22.16 10.27-43.07 27.81-56.61l5.258-4.058c1.729-1.335 2.692-3.435 2.573-5.616l-2.151-39.686c-2.99-55.35 16.8-109.08 54.05-149.08.53-.58.91-1.28 1.1-2.04.32-1.35.01-2.77-.84-3.87l-3.17-4.09c-9.49-12.25-48.8-30.69-48.8-32.36 0-.89 21.874-21.405 35.056-25.705-21.534.45-41.845 10.199-55.652 26.799-.64.76-.93 1.67-.93 2.56 0 1.67 1.04 3.28 2.82 3.83l8.64 2.67c14.81 4.58 27.85 13.61 37.34 25.86l3.17 4.09c.85 1.1 1.16 2.52.84 3.87-.19.76-.57 1.46-1.1 2.04-37.25 40-57.04 93.73-54.05 149.08l2.34 43.17-8.02 6.19c-17.54 13.54-27.81 34.45-27.81 56.61v9.691c0 1.932 1.566 3.499 3.499 3.499h6.099c7.263 0 14.389-1.252 21.094-3.634z" fill="#9be5fb"/></g><g><path d="m109.965 233.55c0 .054.052.049.128.018-.08-.067-.128-.084-.128-.018z" fill="#9be5fb"/></g></g><path d="m368.542 257.005-2.492-2.492c-2.93-2.928-7.678-2.928-10.607 0-2.929 2.93-2.929 7.678 0 10.607l2.492 2.492c4.931 4.93 11.486 7.646 18.459 7.646h60.231c.971-3.086 1.496-6.369 1.496-9.776 0-1.779-.148-3.523-.423-5.224h-61.304c-2.966 0-5.755-1.155-7.852-3.253z" fill="#9be5fb"/><g><path d="m321.694 233.936c-4.143 0-7.5-3.357-7.5-7.5v-6.886c0-4.143 3.357-7.5 7.5-7.5s7.5 3.357 7.5 7.5v6.886c0 4.143-3.358 7.5-7.5 7.5z" fill="#918291"/></g><circle cx="310.6" cy="78.199" fill="#fdea84" r="78.199"/><path d="m309.811 130.664c-30.539-30.539-30.539-80.051 0-110.589 7.191-7.191 15.467-12.68 24.267-16.484-26.894-8.43-57.463-1.997-78.773 19.313-30.538 30.539-30.538 80.051 0 110.589 23.347 23.348 57.81 28.834 86.38 16.483-11.647-3.651-22.645-10.083-31.874-19.312z" fill="#fde044"/><ellipse cx="310.6" cy="78.199" fill="#fdaee0" rx="78.199" ry="39.708" transform="matrix(.707 -.707 .707 .707 35.678 242.531)"/><g><g><path d="m191.603 97.819c-2.011 0-4.016-.804-5.493-2.392-4.381-4.709-6.793-10.827-6.793-17.229 0-6.4 2.412-12.52 6.792-17.229 2.821-3.033 7.567-3.206 10.6-.385s3.205 7.566.385 10.6c-1.79 1.925-2.776 4.416-2.776 7.014s.985 5.088 2.775 7.012c2.821 3.032 2.65 7.778-.383 10.6-1.445 1.344-3.279 2.009-5.107 2.009z" fill="#f3f0f3"/></g></g><g><g><g><path d="m174.25 121.673c-1.71 0-3.43-.582-4.838-1.772-12.313-10.407-19.374-25.607-19.374-41.702s7.062-31.295 19.374-41.702c3.164-2.675 7.896-2.276 10.569.886 2.674 3.163 2.277 7.896-.886 10.569-8.934 7.552-14.058 18.576-14.058 30.247s5.124 22.695 14.058 30.247c3.163 2.674 3.56 7.406.886 10.569-1.483 1.755-3.6 2.658-5.731 2.658z" fill="#f3f0f3"/></g></g></g><g><g><path d="m419.581 135.015c-2.66 0-5.236-1.418-6.596-3.919-1.979-3.639-.633-8.193 3.007-10.171 2.309-1.255 4.034-3.303 4.859-5.766.826-2.464.684-5.139-.402-7.531-1.711-3.772-.04-8.218 3.731-9.929 3.775-1.713 8.219-.038 9.929 3.731 2.657 5.858 3 12.427.965 18.496-2.034 6.069-6.267 11.104-11.918 14.176-1.137.62-2.365.913-3.575.913z" fill="#f3f0f3"/></g></g><g><g><g><path d="m428.442 163.147c-2.982 0-5.803-1.791-6.972-4.731-1.53-3.85.351-8.21 4.199-9.74 10.871-4.32 19.233-13.145 22.943-24.21 3.709-11.066 2.355-23.147-3.715-33.146-2.149-3.541-1.021-8.154 2.519-10.304 3.543-2.148 8.154-1.021 10.304 2.519 8.366 13.781 10.23 30.437 5.115 45.698-5.116 15.26-16.644 27.428-31.625 33.382-.909.361-1.846.532-2.768.532z" fill="#f3f0f3"/></g></g></g><path d="m308.607 129.423c-24.112-25.183-28.13-62.501-12.041-91.728-4.776 3.716-9.476 7.857-14.044 12.426-30.539 30.538-42.724 67.866-27.217 83.373 10.611 10.61 31.424 8.258 53.302-4.071z" fill="#fd94d3"/></g></svg>