<svg id="Capa_1" enable-background="new 0 0 510.99 510.99" height="512" viewBox="0 0 510.99 510.99" width="512" xmlns="http://www.w3.org/2000/svg"><g><path d="m416.822 232.924h-19.113c-2.597-29.301-20.238-54.328-45.135-67.303 10.885-4.167 21.092-10.607 29.851-19.365.001 0 .001 0 .001-.001 33.413-33.414 33.413-87.782-.001-121.196-33.415-33.413-87.783-33.411-121.196 0-33.413 33.414-33.413 87.782 0 121.197 3.704 3.704 7.677 6.973 11.839 9.855h-6.98c-22.504 0-43.959 6.816-62.014 19.466-14.809-12.654-33.425-19.572-53.115-19.572h-15.396c-24.412 0-47.368 10.763-62.982 29.528-2.466 2.964-3.282 6.938-2.186 10.635 1.097 3.695 3.95 6.58 7.633 7.719l8.64 2.67c13.406 4.143 25.034 12.195 33.627 23.287l1.652 2.133c-37.582 41.365-57.37 96.893-54.352 152.755l2.121 39.235-4.905 3.788c-19.234 14.856-30.718 38.237-30.718 62.542v13.191c0 4.143 3.357 7.5 7.5 7.5h9.601c19.576 0 38.434-8.237 51.735-22.601l.898-.97.898.97c13.303 14.363 32.16 22.601 51.736 22.601h9.601c4.143 0 7.5-3.357 7.5-7.5v-10.951c0-24.821-11.679-48.162-31.392-63.054l8.949-12.882c18.412-26.504 43.394-47.086 72.704-60.03l-.763 2.991c-.874 3.423.062 6.991 2.502 9.546 1.948 2.04 4.586 3.15 7.332 3.15.692 0 1.393-.071 2.089-.216l32.723-6.776c16.328-3.382 30.146-13.785 37.91-28.542 3.853-7.323 6.008-15.496 6.327-23.758h29.166c4.143 0 7.5-3.357 7.5-7.5s-3.357-7.5-7.5-7.5h-35.492c-.363-.054-.731-.091-1.108-.091s-.746.037-1.108.091h-1.537c-4.143 0-7.5 3.357-7.5 7.5 0 2.285 1.025 4.327 2.636 5.703-.052 6.448-1.654 12.863-4.657 18.572-5.668 10.773-15.756 18.368-27.677 20.838l-25.161 5.21 14.53-56.958c1.023-4.014-1.4-8.097-5.414-9.121-4.009-1.02-8.097 1.4-9.121 5.414l-2.198 8.614-6.12 1.575c-12.956 3.333-25.367 8.524-36.888 15.43-3.553 2.129-4.707 6.735-2.577 10.288 1.405 2.346 3.891 3.646 6.439 3.646 1.313 0 2.642-.345 3.849-1.068 9.729-5.831 20.172-10.273 31.058-13.254l-4.632 18.16c-29.989 11.149-56.274 29.396-77.012 53.307 6.221-14.696 15.24-28.141 26.588-39.488 2.93-2.929 2.93-7.678.001-10.606-2.929-2.93-7.678-2.929-10.606-.001-17.197 17.195-29.638 38.682-35.979 62.136l-6.891 25.49c-.826 3.058.357 6.305 2.957 8.114l3.613 2.513c17.195 11.964 27.461 31.611 27.461 52.559v3.451h-2.101c-15.412 0-30.258-6.485-40.732-17.794l-6.4-6.91c-1.419-1.532-3.413-2.403-5.502-2.403s-4.083.871-5.502 2.403l-6.401 6.911c-10.473 11.308-25.318 17.793-40.73 17.793h-2.101v-5.691c0-19.691 9.304-38.634 24.887-50.671l8.019-6.196c1.952-1.507 3.038-3.878 2.905-6.34l-2.333-43.168c-2.846-52.652 16.124-104.98 52.041-143.563 1.419-1.522 2.424-3.393 2.905-5.408.855-3.577.054-7.297-2.197-10.201l-3.17-4.093c-10.492-13.542-24.688-23.374-41.056-28.433l-3.419-1.056c12.556-12.875 29.728-20.164 47.885-20.164h15.396c15.14 0 29.502 5.011 41.228 14.219-.921.861-1.835 1.733-2.731 2.629-2.929 2.93-2.929 7.678 0 10.607 2.93 2.928 7.678 2.928 10.607 0 2.566-2.566 5.26-4.96 8.059-7.186.114-.086.226-.175.336-.27 16.376-12.896 36.464-19.895 57.63-19.895h47.661c35.684 0 65.148 27.109 68.9 61.813h-4.834c-4.143 0-7.5 3.357-7.5 7.5s3.357 7.5 7.5 7.5h39.009c12.003 0 22.056 8.498 24.468 19.793h-53.669c-2.966 0-5.755-1.155-7.852-3.253l-2.492-2.492c-2.93-2.928-7.678-2.928-10.607 0-2.929 2.93-2.929 7.678 0 10.607l2.492 2.492c4.931 4.93 11.486 7.646 18.459 7.646h52.235c-3.813 8.956-12.702 15.251-23.034 15.251h-43.753c-4.143 0-7.5 3.357-7.5 7.5s3.357 7.5 7.5 7.5h43.753c22.068 0 40.021-17.953 40.021-40.021s-17.952-40.022-40.021-40.022zm-45.003-97.275c-19.266 19.264-46.969 25.046-71.317 17.385 1.45-.384 2.917-.807 4.407-1.293 16.848-5.5 34.711-17.113 50.3-32.701.963-.963 1.906-1.935 2.835-2.909 2.857-2.999 2.743-7.746-.256-10.604s-7.746-2.743-10.604.256c-.847.889-1.706 1.772-2.583 2.649-29.46 29.46-61.995 37.989-72.766 27.218-5.323-5.323-5.991-15.682-1.832-28.42 4.781-14.646 15.098-30.396 29.049-44.347 13.95-13.952 29.7-24.269 44.347-29.05 12.736-4.157 23.097-3.489 28.418 1.833 7.809 7.808 5.286 26.291-6.274 45.994-2.096 3.573-.899 8.168 2.673 10.265 3.573 2.095 8.168.9 10.265-2.673 5.071-8.643 8.638-17.081 10.701-24.988 7.694 24.366 1.919 52.103-17.363 71.385zm-99.983-99.982c13.782-13.783 31.887-20.674 49.991-20.674 7.204 0 14.403 1.11 21.335 3.292-1.455.385-2.922.802-4.418 1.29-16.848 5.499-34.711 17.113-50.299 32.701-15.588 15.589-27.201 33.451-32.701 50.299-.488 1.496-.905 2.964-1.29 4.418-7.667-24.352-1.885-52.06 17.382-71.326z"/><path d="m325.421 227.009v6.886c0 4.143 3.357 7.5 7.5 7.5s7.5-3.357 7.5-7.5v-6.886c0-4.143-3.357-7.5-7.5-7.5s-7.5 3.358-7.5 7.5z"/><path d="m197.337 102.886c1.478 1.588 3.482 2.392 5.493 2.392 1.828 0 3.662-.665 5.106-2.009 3.033-2.821 3.204-7.567.383-10.6-1.79-1.924-2.775-4.414-2.775-7.012s.986-5.089 2.776-7.014c2.82-3.033 2.648-7.778-.385-10.6-3.032-2.821-7.778-2.648-10.6.385-4.38 4.709-6.792 10.828-6.792 17.229.001 6.402 2.413 12.52 6.794 17.229z"/><path d="m180.64 127.36c1.408 1.19 3.128 1.772 4.838 1.772 2.131 0 4.248-.903 5.731-2.658 2.674-3.163 2.277-7.896-.886-10.569-8.934-7.552-14.058-18.576-14.058-30.247s5.124-22.695 14.058-30.247c3.163-2.674 3.56-7.406.886-10.569-2.674-3.162-7.405-3.561-10.569-.886-12.313 10.407-19.374 25.607-19.374 41.702s7.061 31.295 19.374 41.702z"/><path d="m430.809 142.474c1.21 0 2.438-.293 3.575-.912 5.651-3.071 9.884-8.106 11.918-14.176 2.035-6.069 1.692-12.638-.965-18.496-1.71-3.77-6.153-5.444-9.929-3.731-3.771 1.711-5.442 6.156-3.731 9.929 1.086 2.393 1.229 5.067.402 7.531-.825 2.463-2.551 4.511-4.859 5.766-3.64 1.978-4.985 6.532-3.007 10.171 1.359 2.5 3.935 3.918 6.596 3.918z"/><path d="m468.947 90.994c-2.149-3.54-6.761-4.667-10.304-2.519-3.54 2.149-4.668 6.763-2.519 10.304 6.07 9.998 7.424 22.079 3.715 33.146-3.71 11.065-12.072 19.89-22.943 24.21-3.849 1.53-5.729 5.891-4.199 9.74 1.169 2.94 3.989 4.731 6.972 4.731.922 0 1.859-.171 2.769-.532 14.981-5.954 26.509-18.122 31.625-33.382 5.115-15.262 3.25-31.917-5.116-45.698z"/></g></svg>