<svg id="Capa_1" enable-background="new 0 0 510.99 510.99" height="512" viewBox="0 0 510.99 510.99" width="512" xmlns="http://www.w3.org/2000/svg"><g><g><path d="m231.568 345.346c21.743-9.666 75.071-60.388 75.071-60.388l-10.635-26.969-186.501 102.177s3.419 92.301 4.558 92.681c1.14.38 20.435-25.46 20.435-25.46l10.464-15.062c21.315-30.683 51.551-54.067 86.608-66.979z" fill="#65daf9"/><g id="XMLID_465_"><g><path d="m390.204 232.999c.404 4.217 3.97 7.423 8.206 7.423h18.408c8.99 0 17.12 3.64 23 9.53 6.057 6.047 9.735 14.474 9.521 23.758-.41 17.773-15.398 31.762-33.175 31.762h-111.656v5.38c0 3.9-.48 7.77-1.4 11.53-.93 3.75-2.32 7.4-4.13 10.85-6.69 12.72-18.72 21.78-32.79 24.69l-32.73 6.78c-1.93.4-3.62-1.37-3.13-3.28l12.97-50.82-1.29-.33-8.96 2.31c-45.95 11.82-82 47.43-94.39 93.24l-6.89 25.49 3.62 2.51c19.21 13.37 30.67 35.3 30.67 58.72v7.451c0 1.932-1.566 3.499-3.499 3.499h-6.101c-17.55 0-34.31-7.32-46.23-20.2l-3.828-4.133c-1.388-1.498-3.757-1.498-5.144 0l-3.828 4.133c-11.929 12.879-28.688 20.2-46.242 20.2h-6.099c-1.932 0-3.499-1.566-3.499-3.499v-9.691c0-22.16 10.27-43.07 27.81-56.61l8.02-6.19-2.34-43.17c-2.99-55.35 16.8-109.08 54.05-149.08.53-.58.91-1.28 1.1-2.04.32-1.35.01-2.77-.84-3.87l-3.17-4.09c-9.49-12.25-22.53-21.28-37.34-25.86l-8.64-2.67c-1.78-.55-2.82-2.16-2.82-3.83 0-.89.29-1.8.93-2.56 14.14-17 35.1-26.82 57.21-26.82h15.4c19.74 0 38.67 7.84 52.63 21.8 17.71-13.98 39.7-21.7 62.5-21.7h47.66c39.916-.001 72.722 30.449 76.456 69.387z" fill="#c8effd"/></g><g><path d="m66.613 499.838c-1.932 0-3.499-1.566-3.499-3.499v-9.691c0-22.16 10.27-43.07 27.81-56.61l5.258-4.058c1.729-1.335 2.692-3.435 2.573-5.616l-2.151-39.686c-2.99-55.35 16.8-109.08 54.05-149.08.53-.58.91-1.28 1.1-2.04.32-1.35.01-2.77-.84-3.87l-3.17-4.09c-9.49-12.25-48.8-30.69-48.8-32.36 0-.89 21.874-21.405 35.056-25.705-21.534.45-41.845 10.199-55.652 26.799-.64.76-.93 1.67-.93 2.56 0 1.67 1.04 3.28 2.82 3.83l8.64 2.67c14.81 4.58 27.85 13.61 37.34 25.86l3.17 4.09c.85 1.1 1.16 2.52.84 3.87-.19.76-.57 1.46-1.1 2.04-37.25 40-57.04 93.73-54.05 149.08l2.34 43.17-8.02 6.19c-17.54 13.54-27.81 34.45-27.81 56.61v9.691c0 1.932 1.566 3.499 3.499 3.499h6.099c7.263 0 14.389-1.252 21.094-3.634z" fill="#9be5fb"/></g><g><path d="m121.192 241.009c0 .054.052.049.128.018-.08-.067-.128-.084-.128-.018z" fill="#9be5fb"/></g></g><circle cx="321.827" cy="85.658" fill="#fdea84" r="78.199"/><path d="m321.038 138.124c-30.539-30.539-30.539-80.051 0-110.589 7.191-7.191 15.467-12.68 24.267-16.484-26.894-8.43-57.463-1.997-78.773 19.313-30.538 30.539-30.538 80.051 0 110.589 23.347 23.348 57.81 28.834 86.38 16.483-11.647-3.652-22.645-10.084-31.874-19.312z" fill="#fde044"/><ellipse cx="321.827" cy="85.658" fill="#fdaee0" rx="78.199" ry="39.708" transform="matrix(.707 -.707 .707 .707 33.692 252.655)"/><path d="m319.834 136.882c-24.112-25.183-28.13-62.501-12.041-91.728-4.776 3.716-9.476 7.857-14.044 12.426-30.539 30.538-42.724 67.866-27.217 83.373 10.611 10.61 31.424 8.258 53.302-4.071z" fill="#fd94d3"/></g><g><path d="m416.822 232.924h-19.113c-2.597-29.301-20.238-54.328-45.135-67.303 10.885-4.167 21.092-10.607 29.851-19.365.001 0 .001 0 .001-.001 33.413-33.414 33.413-87.782-.001-121.196-33.415-33.413-87.783-33.411-121.196 0-33.413 33.414-33.413 87.782 0 121.197 3.704 3.704 7.677 6.973 11.839 9.855h-6.98c-22.504 0-43.959 6.816-62.014 19.466-14.809-12.654-33.425-19.572-53.115-19.572h-15.396c-24.412 0-47.368 10.763-62.982 29.528-2.466 2.964-3.282 6.938-2.186 10.635 1.097 3.695 3.95 6.58 7.633 7.719l8.64 2.67c13.406 4.143 25.034 12.195 33.627 23.287l1.652 2.133c-37.582 41.365-57.37 96.893-54.352 152.755l2.121 39.235-4.905 3.788c-19.234 14.856-30.718 38.237-30.718 62.542v13.191c0 4.143 3.357 7.5 7.5 7.5h9.601c19.576 0 38.434-8.237 51.735-22.601l.898-.97.898.97c13.303 14.363 32.16 22.601 51.736 22.601h9.601c4.143 0 7.5-3.357 7.5-7.5v-10.951c0-24.821-11.679-48.162-31.392-63.054l8.949-12.882c18.412-26.504 43.394-47.086 72.704-60.03l-.763 2.991c-.874 3.423.062 6.991 2.502 9.546 1.948 2.04 4.586 3.15 7.332 3.15.692 0 1.393-.071 2.089-.216l32.723-6.776c16.328-3.382 30.146-13.785 37.91-28.542 3.853-7.323 6.008-15.496 6.327-23.758h29.166c4.143 0 7.5-3.357 7.5-7.5s-3.357-7.5-7.5-7.5h-35.492c-.363-.054-.731-.091-1.108-.091s-.746.037-1.108.091h-1.537c-4.143 0-7.5 3.357-7.5 7.5 0 2.285 1.025 4.327 2.636 5.703-.052 6.448-1.654 12.863-4.657 18.572-5.668 10.773-15.756 18.368-27.677 20.838l-25.161 5.21 14.53-56.958c1.023-4.014-1.4-8.097-5.414-9.121-4.009-1.02-8.097 1.4-9.121 5.414l-2.198 8.614-6.12 1.575c-12.956 3.333-25.367 8.524-36.888 15.43-3.553 2.129-4.707 6.735-2.577 10.288 1.405 2.346 3.891 3.646 6.439 3.646 1.313 0 2.642-.345 3.849-1.068 9.729-5.831 20.172-10.273 31.058-13.254l-4.632 18.16c-29.989 11.149-56.274 29.396-77.012 53.307 6.221-14.696 15.24-28.141 26.588-39.488 2.93-2.929 2.93-7.678.001-10.606-2.929-2.93-7.678-2.929-10.606-.001-17.197 17.195-29.638 38.682-35.979 62.136l-6.891 25.49c-.826 3.058.357 6.305 2.957 8.114l3.613 2.513c17.195 11.964 27.461 31.611 27.461 52.559v3.451h-2.101c-15.412 0-30.258-6.485-40.732-17.794l-6.4-6.91c-1.419-1.532-3.413-2.403-5.502-2.403s-4.083.871-5.502 2.403l-6.401 6.911c-10.473 11.308-25.318 17.793-40.73 17.793h-2.101v-5.691c0-19.691 9.304-38.634 24.887-50.671l8.019-6.196c1.952-1.507 3.038-3.878 2.905-6.34l-2.333-43.168c-2.846-52.652 16.124-104.98 52.041-143.563 1.419-1.522 2.424-3.393 2.905-5.408.855-3.577.054-7.297-2.197-10.201l-3.17-4.093c-10.492-13.542-24.688-23.374-41.056-28.433l-3.419-1.056c12.556-12.875 29.728-20.164 47.885-20.164h15.396c15.14 0 29.502 5.011 41.228 14.219-.921.861-1.835 1.733-2.731 2.629-2.929 2.93-2.929 7.678 0 10.607 2.93 2.928 7.678 2.928 10.607 0 2.566-2.566 5.26-4.96 8.059-7.186.114-.086.226-.175.336-.27 16.376-12.896 36.464-19.895 57.63-19.895h47.661c35.684 0 65.148 27.109 68.9 61.813h-4.834c-4.143 0-7.5 3.357-7.5 7.5s3.357 7.5 7.5 7.5h39.009c12.003 0 22.056 8.498 24.468 19.793h-53.669c-2.966 0-5.755-1.155-7.852-3.253l-2.492-2.492c-2.93-2.928-7.678-2.928-10.607 0-2.929 2.93-2.929 7.678 0 10.607l2.492 2.492c4.931 4.93 11.486 7.646 18.459 7.646h52.235c-3.813 8.956-12.702 15.251-23.034 15.251h-43.753c-4.143 0-7.5 3.357-7.5 7.5s3.357 7.5 7.5 7.5h43.753c22.068 0 40.021-17.953 40.021-40.021s-17.952-40.022-40.021-40.022zm-45.003-97.275c-19.266 19.264-46.969 25.046-71.317 17.385 1.45-.384 2.917-.807 4.407-1.293 16.848-5.5 34.711-17.113 50.3-32.701.963-.963 1.906-1.935 2.835-2.909 2.857-2.999 2.743-7.746-.256-10.604s-7.746-2.743-10.604.256c-.847.889-1.706 1.772-2.583 2.649-29.46 29.46-61.995 37.989-72.766 27.218-5.323-5.323-5.991-15.682-1.832-28.42 4.781-14.646 15.098-30.396 29.049-44.347 13.95-13.952 29.7-24.269 44.347-29.05 12.736-4.157 23.097-3.489 28.418 1.833 7.809 7.808 5.286 26.291-6.274 45.994-2.096 3.573-.899 8.168 2.673 10.265 3.573 2.095 8.168.9 10.265-2.673 5.071-8.643 8.638-17.081 10.701-24.988 7.694 24.366 1.919 52.103-17.363 71.385zm-99.983-99.982c13.782-13.783 31.887-20.674 49.991-20.674 7.204 0 14.403 1.11 21.335 3.292-1.455.385-2.922.802-4.418 1.29-16.848 5.499-34.711 17.113-50.299 32.701-15.588 15.589-27.201 33.451-32.701 50.299-.488 1.496-.905 2.964-1.29 4.418-7.667-24.352-1.885-52.06 17.382-71.326z"/><path d="m325.421 227.009v6.886c0 4.143 3.357 7.5 7.5 7.5s7.5-3.357 7.5-7.5v-6.886c0-4.143-3.357-7.5-7.5-7.5s-7.5 3.358-7.5 7.5z"/><path d="m197.337 102.886c1.478 1.588 3.482 2.392 5.493 2.392 1.828 0 3.662-.665 5.106-2.009 3.033-2.821 3.204-7.567.383-10.6-1.79-1.924-2.775-4.414-2.775-7.012s.986-5.089 2.776-7.014c2.82-3.033 2.648-7.778-.385-10.6-3.032-2.821-7.778-2.648-10.6.385-4.38 4.709-6.792 10.828-6.792 17.229.001 6.402 2.413 12.52 6.794 17.229z"/><path d="m180.64 127.36c1.408 1.19 3.128 1.772 4.838 1.772 2.131 0 4.248-.903 5.731-2.658 2.674-3.163 2.277-7.896-.886-10.569-8.934-7.552-14.058-18.576-14.058-30.247s5.124-22.695 14.058-30.247c3.163-2.674 3.56-7.406.886-10.569-2.674-3.162-7.405-3.561-10.569-.886-12.313 10.407-19.374 25.607-19.374 41.702s7.061 31.295 19.374 41.702z"/><path d="m430.809 142.474c1.21 0 2.438-.293 3.575-.912 5.651-3.071 9.884-8.106 11.918-14.176 2.035-6.069 1.692-12.638-.965-18.496-1.71-3.77-6.153-5.444-9.929-3.731-3.771 1.711-5.442 6.156-3.731 9.929 1.086 2.393 1.229 5.067.402 7.531-.825 2.463-2.551 4.511-4.859 5.766-3.64 1.978-4.985 6.532-3.007 10.171 1.359 2.5 3.935 3.918 6.596 3.918z"/><path d="m468.947 90.994c-2.149-3.54-6.761-4.667-10.304-2.519-3.54 2.149-4.668 6.763-2.519 10.304 6.07 9.998 7.424 22.079 3.715 33.146-3.71 11.065-12.072 19.89-22.943 24.21-3.849 1.53-5.729 5.891-4.199 9.74 1.169 2.94 3.989 4.731 6.972 4.731.922 0 1.859-.171 2.769-.532 14.981-5.954 26.509-18.122 31.625-33.382 5.115-15.262 3.25-31.917-5.116-45.698z"/></g></g></svg>