<?xml version="1.0" encoding="UTF-8"?>
<!DOCTYPE svg PUBLIC "-//W3C//DTD SVG 1.1//EN" "http://www.w3.org/Graphics/SVG/1.1/DTD/svg11.dtd">
<svg xmlns="http://www.w3.org/2000/svg" version="1.1" width="364px" height="379px" style="shape-rendering:geometricPrecision; text-rendering:geometricPrecision; image-rendering:optimizeQuality; fill-rule:evenodd; clip-rule:evenodd" xmlns:xlink="http://www.w3.org/1999/xlink">
<g><path style="opacity:0.1" fill="#fffcfc" d="M 194.5,378.5 C 187.167,378.5 179.833,378.5 172.5,378.5C 170.189,376.932 167.522,376.098 164.5,376C 136.757,360.959 109.757,344.626 83.5,327C 59.6578,313.248 35.9911,299.248 12.5,285C 9.83333,282.333 7.16667,279.667 4.5,277C 4.95735,276.586 5.29069,276.086 5.5,275.5C 3.28275,272.932 2.11608,269.932 2,266.5C 1.83333,250.667 1.66667,234.833 1.5,219C 1.3512,153.537 1.51787,88.037 2,22.5C 4.00297,6.57068 12.8363,0.737351 28.5,5C 77.8489,35.0751 127.516,65.2418 177.5,95.5C 181.058,95.3843 184.725,95.2176 188.5,95C 200.686,89.2835 212.02,82.2835 222.5,74C 246.38,60.569 269.38,45.9023 291.5,30C 307.375,20.8952 323.709,12.5619 340.5,5C 349.42,3.71064 356.254,6.87731 361,14.5C 362.308,100.857 362.308,187.191 361,273.5C 359.014,278.496 355.847,282.663 351.5,286C 314.97,306.815 279.47,328.648 245,351.5C 244.667,351.167 244.333,350.833 244,350.5C 231.604,358.518 219.104,366.352 206.5,374C 202.833,375 199.167,376 195.5,377C 194.944,377.383 194.611,377.883 194.5,378.5 Z"/></g>
<g><path style="opacity:0.984" fill="#fe8e70" d="M 358.5,154.5 C 356.934,160.114 353.934,164.947 349.5,169C 329.084,180.634 309.418,193.134 290.5,206.5C 289.833,206.167 289.167,205.833 288.5,205.5C 261.9,188.191 234.9,171.358 207.5,155C 190.833,146.333 174.167,146.333 157.5,155C 129.727,171.634 102.394,188.801 75.5,206.5C 75.1667,206.5 74.8333,206.5 74.5,206.5C 74.0629,204.926 73.0629,203.759 71.5,203C 52.8333,191.667 34.1667,180.333 15.5,169C 11.0704,164.958 8.07043,160.125 6.5,154.5C 6.33334,108.832 6.50001,63.1655 7,17.5C 11.7957,8.0938 18.9624,5.92714 28.5,11C 75.6674,39.7493 122.667,68.7493 169.5,98C 173.464,100.56 177.798,102.06 182.5,102.5C 187.079,101.696 191.413,100.196 195.5,98C 242.5,69 289.5,40 336.5,11C 346.199,7.56407 353.365,10.3974 358,19.5C 358.5,64.4988 358.667,109.499 358.5,154.5 Z"/></g>
<g><path style="opacity:0.996" fill="#dd1252" d="M 288.5,205.5 C 262.34,222.137 236.006,238.637 209.5,255C 193.666,263.826 177.333,264.826 160.5,258C 132.444,240.308 104.11,223.142 75.5,206.5C 102.394,188.801 129.727,171.634 157.5,155C 174.167,146.333 190.833,146.333 207.5,155C 234.9,171.358 261.9,188.191 288.5,205.5 Z"/></g>
<g><path style="opacity:0.947" fill="#ffc273" d="M 358.5,154.5 C 358.5,188.167 358.5,221.833 358.5,255.5C 356.199,249.69 352.532,244.857 347.5,241C 328.472,229.489 309.472,217.989 290.5,206.5C 309.418,193.134 329.084,180.634 349.5,169C 353.934,164.947 356.934,160.114 358.5,154.5 Z"/></g>
<g><path style="opacity:0.965" fill="#ffc273" d="M 6.5,154.5 C 8.07043,160.125 11.0704,164.958 15.5,169C 34.1667,180.333 52.8333,191.667 71.5,203C 73.0629,203.759 74.0629,204.926 74.5,206.5C 53.6202,218.545 33.1202,231.212 13,244.5C 10.2894,247.933 8.1227,251.6 6.5,255.5C 6.5,221.833 6.5,188.167 6.5,154.5 Z"/></g>
<g><path style="opacity:0.983" fill="#fe4578" d="M 288.5,205.5 C 289.167,205.833 289.833,206.167 290.5,206.5C 309.472,217.989 328.472,229.489 347.5,241C 352.532,244.857 356.199,249.69 358.5,255.5C 359.925,265.059 357.258,273.225 350.5,280C 303.333,308.749 256.333,337.749 209.5,367C 191.491,376.966 173.491,376.966 155.5,367C 108.5,338 61.5,309 14.5,280C 7.74209,273.225 5.07542,265.059 6.5,255.5C 8.1227,251.6 10.2894,247.933 13,244.5C 33.1202,231.212 53.6202,218.545 74.5,206.5C 74.8333,206.5 75.1667,206.5 75.5,206.5C 104.11,223.142 132.444,240.308 160.5,258C 177.333,264.826 193.666,263.826 209.5,255C 236.006,238.637 262.34,222.137 288.5,205.5 Z"/></g>
</svg>
